<?xml version="1.0" standalone="no"?>
<!DOCTYPE svg PUBLIC "-//W3C//DTD SVG 1.1//EN" "http://www.w3.org/Graphics/SVG/1.1/DTD/svg11.dtd" >
<svg xmlns="http://www.w3.org/2000/svg">
<metadata></metadata>
<defs>
<font id="nokia_pure_headlinebold" horiz-adv-x="1138" >
<font-face units-per-em="2048" ascent="1638" descent="-410" />
<missing-glyph horiz-adv-x="501" />
<glyph unicode="&#xfb01;" horiz-adv-x="1234" d="M10 801v231h180v82q0 88 19.5 170t64.5 143.5t121 98.5t187 37q68 0 121 -11.5t75 -17.5l-24 -215q-27 6 -52.5 10t-48.5 4q-88 0 -137 -47t-49 -164v-90h659v-1032h-274v801h-385v-801h-277v801h-180zM831 1348q0 70 42 117.5t114 47.5t114 -47t42 -118q0 -72 -42 -119 t-114 -47t-114 48t-42 118z" />
<glyph unicode="&#xfb02;" horiz-adv-x="1234" d="M10 801v231h180v82q0 88 19.5 170t64.5 143.5t121 98.5t187 37q68 0 121 -11.5t75 -17.5l-24 -215q-27 6 -52.5 10t-48.5 4q-88 0 -137 -47t-49 -164v-90h272v-231h-272v-801h-277v801h-180zM850 0v1536h274v-1536h-274z" />
<glyph unicode="&#xfb03;" horiz-adv-x="1894" d="M10 801v231h180v82q0 88 19.5 170t66 143.5t124 98.5t192.5 37q76 0 130 -11.5t77 -17.5l-25 -215q-27 6 -53.5 10t-56.5 4q-96 0 -146.5 -47t-50.5 -164v-90h383v82q0 88 19.5 170t64.5 143.5t120.5 98.5t186.5 37q68 0 121 -11.5t76 -17.5l-25 -215q-27 6 -52.5 10 t-47.5 4q-88 0 -137.5 -47t-49.5 -164v-90h660v-1032h-275v801h-385v-801h-276v801h-383v-801h-277v801h-180zM1491 1348q0 70 42 117.5t114 47.5t113.5 -47t41.5 -118q0 -72 -42 -119t-113 -47q-72 0 -114 48t-42 118z" />
<glyph unicode="&#xfb04;" horiz-adv-x="1896" d="M10 801v231h180v82q0 88 19.5 170t66 143.5t124 98.5t192.5 37q76 0 130 -11.5t77 -17.5l-25 -215q-27 6 -53.5 10t-56.5 4q-96 0 -146.5 -47t-50.5 -164v-90h385v82q0 88 19.5 170t64.5 143.5t121 98.5t186 37q68 0 121 -11.5t76 -17.5l-25 -215q-27 6 -52.5 10t-47.5 4 q-88 0 -137.5 -47t-49.5 -164v-90h273v-231h-273v-801h-276v801h-385v-801h-277v801h-180zM1511 0v1536h275v-1536h-275z" />
<glyph unicode="&#xd;" horiz-adv-x="501" />
<glyph horiz-adv-x="0" />
<glyph horiz-adv-x="0" />
<glyph unicode=" "  horiz-adv-x="501" />
<glyph unicode="&#x09;" horiz-adv-x="501" />
<glyph unicode="&#xa0;" horiz-adv-x="501" />
<glyph unicode="!" horiz-adv-x="610" d="M143 152q0 72 43 121t117 49t117 -47t43 -123t-43 -123t-117 -47t-117 49t-43 121zM158 459v981h288v-981h-288z" />
<glyph unicode="&#x22;" horiz-adv-x="811" d="M80 1440h264l-29 -547h-204zM467 1440h264l-29 -547h-204z" />
<glyph unicode="#" horiz-adv-x="1347" d="M37 332l41 223h213l67 334h-233l41 223h235l68 328h236l-68 -328h235l68 328h234l-68 -328h205l-41 -223h-205l-70 -334h230l-41 -223h-228l-67 -332h-236l66 332h-236l-65 -332h-236l66 332h-211zM526 555h236l67 334h-235z" />
<glyph unicode="$" d="M57 96l109 221q43 -25 130 -59.5t204 -44.5v395q-84 25 -161 61t-136.5 88t-95 123.5t-35.5 168.5q0 178 112.5 283.5t315.5 121.5v164h155v-164q117 -10 215.5 -45t153.5 -70l-102 -204q-35 20 -108 44.5t-161 34.5v-380l43 -13q84 -27 156 -64.5t123 -88t79.5 -115 t28.5 -143.5q0 -88 -32.5 -163t-91 -131.5t-137.5 -92t-171 -48.5v-198h-151v196q-86 4 -161 19.5t-133.5 36t-96 39t-52.5 28.5zM352 1051q0 -47 31 -90t117 -76v329q-61 -10 -104.5 -51t-43.5 -112zM653 221q63 14 103.5 52.5t40.5 101.5q0 59 -29 105t-115 81v-340z" />
<glyph unicode="%" horiz-adv-x="1802" d="M18 1038q0 205 91.5 314.5t265.5 109.5t263 -109.5t89 -314.5t-93 -310t-259 -105q-174 0 -265.5 103t-91.5 312zM256 1038q0 -104 29 -159.5t90 -55.5q59 0 88 58.5t29 156.5q0 104 -29 164t-88 60q-61 0 -90 -59.5t-29 -164.5zM389 0l778 1440h260l-780 -1440h-258z M1073 389q0 205 91 314.5t266 109.5q174 0 263 -109.5t89 -314.5t-93 -310.5t-259 -105.5q-174 0 -265.5 103.5t-91.5 312.5zM1311 389q0 -104 29 -159.5t90 -55.5q59 0 87.5 58.5t28.5 156.5q0 104 -28.5 163.5t-87.5 59.5q-61 0 -90 -59t-29 -164z" />
<glyph unicode="&#x26;" horiz-adv-x="1411" d="M61 383q0 160 84 258t228 172q-37 43 -63.5 79t-45 72.5t-28 77.5t-9.5 91q0 80 32 143t86 106t128 67t160 24q88 0 161.5 -24t128 -68t84 -107.5t29.5 -140.5q0 -66 -17.5 -118t-54 -98.5t-93 -87.5t-134.5 -81l285 -334q45 41 83 103.5t73 131.5l196 -100 q-39 -98 -96 -178t-111 -133l201 -238h-307l-76 88q-82 -57 -179 -87t-220 -30t-220.5 33t-165 90.5t-103.5 131t-36 157.5zM332 401q0 -57 23.5 -97t60.5 -64.5t83 -34.5t93 -10q80 0 140.5 18t101.5 49l-322 377q-35 -18 -66.5 -39.5t-57.5 -50.5t-41 -64.5t-15 -83.5z M475 1130q0 -33 11.5 -63.5t30 -59t40 -54t41.5 -46.5q37 18 73 40t64.5 47.5t46 58t17.5 73.5q0 70 -45 112t-117 42q-68 0 -115 -39t-47 -111z" />
<glyph unicode="'" horiz-adv-x="423" d="M80 1440h264l-29 -547h-204z" />
<glyph unicode="(" horiz-adv-x="567" d="M82 670q0 160 21.5 297t53 247.5t68.5 192.5t66 129h252q-35 -61 -69 -150.5t-61.5 -200t-45 -241.5t-17.5 -274q0 -145 17.5 -275.5t45 -241t61.5 -199.5t69 -151h-252q-29 47 -66 129t-68.5 193t-53 248t-21.5 297z" />
<glyph unicode=")" horiz-adv-x="567" d="M25 -197q35 61 68.5 150.5t61 200t44 240.5t16.5 276q0 145 -16.5 275t-44 240.5t-61.5 200t-68 150.5h251q29 -47 66 -129t68.5 -192.5t53 -247.5t21.5 -297t-21.5 -297t-53 -248t-68.5 -193t-66 -129h-251z" />
<glyph unicode="*" horiz-adv-x="935" d="M76 1198l69 188l238 -98l-18 248h208l-16 -248l240 101l63 -193l-244 -68l172 -213l-167 -114l-144 223l-147 -227l-170 116l174 213z" />
<glyph unicode="+" d="M76 600v238h370v401h246v-401h371v-238h-371v-401h-246v401h-370z" />
<glyph unicode="," horiz-adv-x="522" d="M29 -295q14 23 34.5 58.5t41 75.5t39 81t28.5 78q-39 20 -65.5 57t-26.5 90q0 78 44 123t120 45q74 0 119 -48t45 -136q0 -72 -32 -149.5t-74 -147.5t-85 -124t-65 -81z" />
<glyph unicode="-" horiz-adv-x="831" d="M82 442v263h668v-263h-668z" />
<glyph unicode="." horiz-adv-x="520" d="M92 152q0 72 43 121t117 49t117 -47t43 -123t-43 -123t-117 -47t-117 49t-43 121z" />
<glyph unicode="/" horiz-adv-x="907" d="M0 -96l639 1632h268l-639 -1632h-268z" />
<glyph unicode="0" horiz-adv-x="1236" d="M66 723q0 354 137 549.5t415 195.5q279 0 416 -194.5t137 -550.5q0 -360 -137 -555t-416 -195q-283 0 -417.5 192.5t-134.5 557.5zM360 723q0 -260 60.5 -386t197.5 -126q135 0 197 127t62 385q0 260 -61.5 384t-197.5 124q-135 0 -196.5 -124t-61.5 -384z" />
<glyph unicode="1" horiz-adv-x="1013" d="M51 1137l518 303h240v-1440h-289v1126l-360 -192z" />
<glyph unicode="2" horiz-adv-x="1110" d="M47 1200q20 33 62.5 80t104.5 90t147 73t190 30q123 0 209 -36t140 -93.5t80 -130t26 -144.5q0 -84 -27 -153.5t-72 -130t-103.5 -111.5t-121.5 -101q-145 -109 -217 -195.5t-74 -141.5h625v-236h-934v27q0 117 23.5 212t70.5 178t121 156.5t172 145.5q117 84 185.5 165 t68.5 171q0 31 -9 62.5t-30.5 58t-56.5 43t-88 16.5q-61 0 -110.5 -18.5t-89.5 -45t-69.5 -58.5t-48.5 -56z" />
<glyph unicode="3" horiz-adv-x="1042" d="M41 1280q18 20 55 52t92.5 62.5t129 52t165.5 21.5q123 0 210 -32.5t143.5 -86t82 -121t25.5 -136.5q0 -70 -19.5 -125.5t-50 -97.5t-70.5 -71.5t-83 -47.5q43 -12 87 -37t80 -65t58.5 -95t22.5 -129q0 -109 -39 -193t-108.5 -141t-168 -88t-215.5 -31 q-147 0 -244.5 23.5t-144.5 42.5l57 223q41 -16 118 -32.5t194 -16.5q119 0 195.5 54t76.5 159q0 84 -61.5 141.5t-194.5 57.5h-174v231h172q123 0 181.5 55.5t58.5 141.5q0 78 -50.5 131t-156.5 53q-53 0 -96 -11.5t-78 -29.5t-61.5 -38.5t-45.5 -39.5z" />
<glyph unicode="4" horiz-adv-x="1144" d="M57 317v215l486 908h288l-475 -887h310v307h268v-311h160v-232h-160v-317h-268v317h-609z" />
<glyph unicode="5" horiz-adv-x="1114" d="M31 43l55 217q41 -14 121 -31.5t215 -17.5q61 0 117.5 16.5t101.5 50t71.5 84t26.5 119.5q0 41 -12 82t-41 74t-74 53.5t-110 20.5q-92 0 -153.5 -30t-92.5 -50l-160 114l84 695h781v-236h-574l-37 -319q20 10 81 26.5t136 16.5q94 0 177 -27t145.5 -83t98.5 -142 t36 -203q0 -102 -38 -192.5t-112.5 -159t-184 -108.5t-253.5 -40q-154 0 -256 23.5t-149 46.5z" />
<glyph unicode="6" horiz-adv-x="1148" d="M66 621q0 412 163.5 629.5t470.5 217.5q45 0 95.5 -7t98.5 -20.5t91 -31.5t72 -41l-99 -205q-39 18 -102.5 43t-153.5 25q-147 0 -237 -100.5t-113 -292.5q49 61 132 95t169 34t166 -30t141.5 -88t98.5 -148.5t37 -208.5q0 -125 -43 -221.5t-115 -163t-166 -100.5 t-194 -34q-236 0 -374 163t-138 485zM356 483q0 -59 13.5 -110t41 -89t69.5 -60.5t98 -22.5q59 0 103 20.5t73.5 55t45 81t15.5 99.5q0 135 -60.5 207.5t-164.5 72.5q-53 0 -96 -20.5t-74 -55t-47.5 -80.5t-16.5 -98z" />
<glyph unicode="7" horiz-adv-x="1019" d="M14 1204v236h955v-221l-525 -1219h-292l530 1204h-668z" />
<glyph unicode="8" horiz-adv-x="1155" d="M61 369q0 145 64.5 231t181.5 145q-92 51 -150.5 135.5t-58.5 213.5q0 80 36 148.5t99.5 118.5t151.5 78.5t193 28.5q113 0 202.5 -27.5t153 -76.5t98.5 -116.5t35 -147.5q0 -74 -18.5 -130.5t-49 -99.5t-69.5 -74.5t-82 -54.5q111 -53 178.5 -143t67.5 -219 q0 -96 -38 -171t-106.5 -127t-164 -80t-210.5 -28q-111 0 -205 30t-162.5 82t-107.5 125t-39 159zM336 385q0 -96 62.5 -146.5t179.5 -50.5q113 0 176 49.5t63 147.5q0 96 -71.5 155.5t-204.5 106.5q-94 -41 -149.5 -108.5t-55.5 -153.5zM369 1079q0 -88 71.5 -144 t177.5 -91q168 82 168 237q0 78 -52 126t-156 48q-100 0 -154.5 -49t-54.5 -127z" />
<glyph unicode="9" d="M45 963q0 119 36 214t100.5 160.5t154.5 100.5t199 35q260 0 399 -168t139 -512q0 -395 -149.5 -608.5t-466.5 -213.5q-115 0 -196 14.5t-140 39.5l51 213q55 -14 122.5 -21.5t131.5 -7.5q92 0 156.5 24.5t107.5 70.5t66.5 114.5t34.5 159.5q-53 -55 -133 -83t-156 -28 q-90 0 -173 29.5t-145.5 91t-100.5 155t-38 220.5zM326 985q0 -141 50 -216t169 -75q117 0 179 75t62 192q0 123 -56 203.5t-175 80.5q-104 0 -166.5 -65.5t-62.5 -194.5z" />
<glyph unicode=":" horiz-adv-x="524" d="M102 152q0 72 43 121t117 49t117 -47t43 -123t-43 -123t-117 -47t-117 49t-43 121zM102 881q0 72 43 121t117 49t117 -47t43 -123t-43 -123t-117 -47t-117 49t-43 121z" />
<glyph unicode=";" horiz-adv-x="512" d="M31 -295q14 23 34.5 58.5t41 75.5t39 81t28.5 78q-39 20 -65.5 57t-26.5 90q0 78 44 123t120 45q74 0 119 -48t45 -136q0 -72 -32 -149.5t-74 -147.5t-85 -124t-65 -81zM80 881q0 72 43 121t117 49t117 -47t43 -123t-43 -123t-117 -47t-117 49t-43 121z" />
<glyph unicode="&#x3c;" d="M123 608v230l809 376l84 -210l-631 -279l631 -281l-84 -213z" />
<glyph unicode="=" d="M117 356v238h905v-238h-905zM117 807v237h905v-237h-905z" />
<glyph unicode="&#x3e;" d="M123 444l631 279l-631 281l84 210l809 -376v-230l-809 -377z" />
<glyph unicode="?" horiz-adv-x="1110" d="M51 1260q31 37 78 74.5t108.5 68.5t137.5 50.5t164 19.5q133 0 223 -36t144.5 -92.5t78 -125t23.5 -132.5q0 -68 -17.5 -117.5t-46.5 -88.5t-65.5 -71t-73.5 -58q-35 -25 -66.5 -52.5t-57.5 -62.5t-41 -79t-15 -103h-269q0 80 14.5 138t42 105t67.5 89t91 85 q25 20 50.5 43t46 47.5t34 52t13.5 58.5q0 59 -48.5 108.5t-142.5 49.5t-180 -41t-154 -107zM332 145q0 72 47 120t117 48t118 -48t48 -120q0 -70 -48.5 -116.5t-117.5 -46.5q-70 0 -117 46.5t-47 116.5z" />
<glyph unicode="@" horiz-adv-x="2091" d="M70 463q0 229 80.5 423.5t223 336t340 221.5t431.5 80q207 0 370.5 -58.5t278.5 -163t175.5 -247t60.5 -307.5q0 -168 -47.5 -301.5t-129 -226.5t-192.5 -142t-236 -49q-78 0 -129 35.5t-69 76.5q-55 -47 -132 -79.5t-169 -32.5q-74 0 -136.5 26.5t-108.5 76.5t-72.5 122 t-26.5 162q0 137 36.5 247.5t101 187.5t154 118t193.5 41q68 0 115 -17.5t76.5 -42t46 -49t22.5 -37.5l33 123h194l-108 -567q-6 -29 -11 -55.5t-5 -42.5q0 -23 15 -41.5t50 -18.5q49 0 98 35t89 98.5t66 150.5t26 189q0 272 -169 413.5t-472 141.5q-178 0 -323.5 -61.5 t-249 -170t-161 -261t-57.5 -332.5q0 -166 42 -299t135 -227.5t240.5 -145.5t356.5 -51q211 0 385 46t328 144l117 -200q-80 -55 -175.5 -97.5t-201 -72t-218 -45t-227.5 -15.5q-270 0 -468.5 70t-328.5 196t-193.5 303t-63.5 392zM850 434q0 -111 37.5 -157t103.5 -46 q31 0 59.5 10.5t52 24t42 29.5t29.5 29l30 174q6 35 10.5 69.5t4.5 57.5q0 176 -146 176q-98 0 -160.5 -96.5t-62.5 -270.5z" />
<glyph unicode="A" horiz-adv-x="1259" d="M16 0l471 1440h287l469 -1440h-289l-90 299h-491l-90 -299h-267zM446 539h347l-170 567z" />
<glyph unicode="B" horiz-adv-x="1228" d="M127 0v1440h496q131 0 218 -34t139 -87t73.5 -119.5t21.5 -130.5q0 -74 -19.5 -127t-51 -91t-70.5 -59.5t-78 -29.5q47 -6 99.5 -26.5t95.5 -63.5t71.5 -109.5t28.5 -163.5q0 -86 -32 -159.5t-95 -127t-158.5 -83t-222.5 -29.5h-516zM406 242h235q125 0 173 54t48 132 q0 102 -61.5 149.5t-175.5 47.5h-219v-383zM406 862h186q84 0 141.5 36t57.5 132q0 94 -55.5 131t-131.5 37h-198v-336z" />
<glyph unicode="C" horiz-adv-x="1247" d="M86 709q0 162 42 301t125 240.5t206 158.5t282 57q147 0 261 -43t200 -116l-141 -199q-49 39 -116.5 72.5t-178.5 33.5q-98 0 -170 -36.5t-119 -103t-69.5 -160t-22.5 -205.5q0 -102 19.5 -191.5t62.5 -155t110.5 -102.5t163.5 -37q53 0 102.5 11.5t90.5 28t73.5 34.5 t53.5 35l135 -201q-86 -68 -202.5 -114t-276.5 -46q-154 0 -271.5 50.5t-197.5 145.5t-121 232.5t-41 309.5z" />
<glyph unicode="D" horiz-adv-x="1411" d="M127 0v1440h500q178 0 309 -52.5t217 -147.5t129 -227t43 -294q0 -164 -43 -297t-130 -226.5t-218 -144.5t-307 -51h-500zM416 248h211q92 0 166.5 33.5t126 96t79 149.5t27.5 194q0 240 -108.5 355.5t-290.5 115.5h-211v-944z" />
<glyph unicode="E" horiz-adv-x="1105" d="M127 0v1440h897v-254h-610v-314h467v-254h-467v-364h630v-254h-917z" />
<glyph unicode="F" horiz-adv-x="1064" d="M127 0v1440h887v-254h-600v-314h458v-254h-458v-618h-287z" />
<glyph unicode="G" horiz-adv-x="1320" d="M86 719q0 166 43 304t127 237.5t208 154.5t288 55q141 0 253.5 -38.5t198.5 -106.5l-121 -203q-45 33 -124 69t-185 36q-100 0 -174 -39t-121 -106.5t-70.5 -161t-23.5 -201.5q0 -109 21.5 -200t68.5 -156.5t121 -103.5t176 -38q59 0 107.5 8.5t89.5 18.5v356h-262v242 h522v-789q-23 -10 -64 -25.5t-102.5 -29.5t-143 -24.5t-186.5 -10.5q-158 0 -278.5 51.5t-202.5 147.5t-124 235.5t-42 317.5z" />
<glyph unicode="H" horiz-adv-x="1361" d="M127 0v1440h289v-547h532v547h287v-1440h-287v635h-532v-635h-289z" />
<glyph unicode="I" horiz-adv-x="542" d="M127 0v1440h289v-1440h-289z" />
<glyph unicode="J" horiz-adv-x="1011" d="M2 80l90 207q12 -6 40 -19.5t67 -26t86 -22.5t98 -10q49 0 92 11t74 42t48 87.5t17 146.5v944h289v-967q0 -264 -123 -385t-379 -121q-78 0 -147.5 15.5t-122.5 35t-88 38t-41 24.5z" />
<glyph unicode="K" horiz-adv-x="1339" d="M127 0v1440h289v-666l534 666h320l-539 -664l596 -776h-348l-563 754v-754h-289z" />
<glyph unicode="L" horiz-adv-x="1067" d="M127 0v1440h289v-1186h606v-254h-895z" />
<glyph unicode="M" horiz-adv-x="1597" d="M127 0v1440h299l373 -774l372 774h299v-1440h-260v969l-313 -619h-213l-297 594v-944h-260z" />
<glyph unicode="N" horiz-adv-x="1363" d="M127 0v1440h276l570 -938v938h264v-1440h-264l-582 954v-954h-264z" />
<glyph unicode="O" horiz-adv-x="1480" d="M86 721q0 164 39 302t120 237.5t203.5 156t290.5 56.5t292 -56.5t205 -156t120 -237.5t39 -302t-39 -302t-120 -238.5t-205 -157t-292 -56.5t-290.5 56.5t-203.5 157t-120 238.5t-39 302zM385 721q0 -229 87 -360.5t267 -131.5t267.5 131.5t87.5 360.5t-87 359t-268 130 q-180 0 -267 -130t-87 -359z" />
<glyph unicode="P" horiz-adv-x="1171" d="M127 0v1440h467q152 0 254 -42t163.5 -108.5t88 -150.5t26.5 -168t-26.5 -168t-90 -150.5t-170 -108.5t-264.5 -42h-163v-502h-285zM412 743h159q57 0 106.5 11.5t86.5 38t57.5 69.5t20.5 109q0 63 -20.5 107t-55.5 71t-80 38t-96 11h-178v-455z" />
<glyph unicode="Q" horiz-adv-x="1480" d="M86 721q0 164 39 302t120 237.5t203.5 156t290.5 56.5t292 -56.5t205 -156t120 -237.5t39 -302q0 -242 -81 -419t-247 -263q66 -66 157 -99.5t214 -52.5l-58 -223q-190 16 -351 98t-265 207h-23q-166 0 -288.5 53.5t-203.5 151.5t-122 236.5t-41 310.5zM385 721 q0 -229 87 -360.5t267 -131.5t267.5 131.5t87.5 360.5t-87 359t-268 130q-180 0 -267 -130t-87 -359z" />
<glyph unicode="R" horiz-adv-x="1245" d="M127 0v1440h496q156 0 256 -42t157.5 -105.5t80 -139t22.5 -143.5q0 -154 -76 -254.5t-209 -145.5l379 -610h-336l-317 537h-168v-537h-285zM412 778h143q150 0 224.5 50t74.5 161q0 121 -72.5 165t-214.5 44h-155v-420z" />
<glyph unicode="S" horiz-adv-x="1136" d="M53 100l113 228q25 -14 63.5 -33t88 -35t107.5 -27.5t124 -11.5q37 0 77 7.5t72.5 27.5t53 53t20.5 86q0 27 -8 53.5t-29.5 51t-59.5 47t-95 41.5l-166 51q-68 20 -130.5 54t-110.5 82t-77.5 112.5t-29.5 144.5q0 205 130 323t367 118q137 0 255 -33t186 -78l-97 -217 q-41 23 -125 52.5t-200 29.5q-45 0 -86 -8.5t-73 -28t-50.5 -51t-18.5 -76.5q0 -29 8.5 -54.5t31 -50t60.5 -45t99 -39.5l143 -40q88 -25 157 -61t116 -86t72.5 -117.5t25.5 -155.5q0 -217 -135 -332t-383 -115q-96 0 -176 15.5t-142.5 37t-107.5 44t-70 36.5z" />
<glyph unicode="T" horiz-adv-x="1193" d="M39 1180v260h1116v-260h-412v-1180h-288v1180h-416z" />
<glyph unicode="U" horiz-adv-x="1347" d="M109 584v856h288v-828q0 -111 14.5 -186.5t47.5 -122.5t85 -67.5t130 -20.5q76 0 129 20.5t86 67.5t47 122t14 185v830h289v-858q0 -152 -29.5 -266.5t-97.5 -191.5t-175 -117t-263 -40q-158 0 -265.5 40t-174 118t-96 192.5t-29.5 266.5z" />
<glyph unicode="V" horiz-adv-x="1263" d="M20 1440h299l324 -1090l318 1090h282l-471 -1440h-270z" />
<glyph unicode="W" horiz-adv-x="1736" d="M20 1440h291l189 -1034l217 1001h311l211 -1001l191 1034h286l-313 -1440h-316l-219 987l-221 -987h-315z" />
<glyph unicode="X" horiz-adv-x="1282" d="M14 0l469 758l-407 682h325l248 -443l254 443h314l-416 -674l467 -766h-330l-299 522l-303 -522h-322z" />
<glyph unicode="Y" horiz-adv-x="1232" d="M20 1440h302l301 -559l299 559h290l-452 -809v-631h-289v631z" />
<glyph unicode="Z" horiz-adv-x="1210" d="M57 0v227l715 959h-678v254h1041v-221l-721 -965h751v-254h-1108z" />
<glyph unicode="[" horiz-adv-x="718" d="M139 -279v1815h539v-231h-272v-1354h272v-230h-539z" />
<glyph unicode="\" horiz-adv-x="907" d="M0 1536h268l639 -1632h-268z" />
<glyph unicode="]" horiz-adv-x="718" d="M41 -49h272v1354h-272v231h539v-1815h-539v230z" />
<glyph unicode="^" d="M68 647l364 766h277l364 -766h-260l-244 541l-243 -541h-258z" />
<glyph unicode="_" horiz-adv-x="1003" d="M-25 -172h1053v-244h-1053v244z" />
<glyph unicode="`" horiz-adv-x="987" d="M201 1395l102 207l483 -269l-81 -166z" />
<glyph unicode="a" horiz-adv-x="1040" d="M51 307q0 174 106.5 262t321.5 88q29 0 61.5 -2t62.5 -5t51.5 -5t27.5 -4v37q0 82 -53.5 122t-145.5 40q-123 0 -200.5 -29t-108.5 -49l-80 190q14 10 47 28.5t85.5 36t122 31t159.5 13.5q231 0 332.5 -103.5t101.5 -277.5v-680h-235l-9 104q-39 -47 -112.5 -88 t-184.5 -41q-68 0 -130 16.5t-111 54.5t-79 101.5t-30 159.5zM303 313q0 -66 42 -101.5t114 -35.5q100 0 161.5 56.5t61.5 138.5v80q-35 6 -82 12t-115 6q-104 0 -143 -39t-39 -117z" />
<glyph unicode="b" horiz-adv-x="1159" d="M102 0v1536h275v-596q37 49 107.5 84t181.5 35q109 0 188.5 -40t132.5 -111.5t79 -170t26 -213.5q0 -145 -38 -246.5t-101.5 -166t-143.5 -94t-166 -29.5q-111 0 -187.5 36.5t-111.5 73.5l-6 -98h-236zM377 297q27 -33 84 -61.5t129 -28.5q223 0 223 317q0 66 -11 121 t-36 95t-64 61.5t-96 21.5q-115 0 -172 -72.5t-57 -232.5v-221z" />
<glyph unicode="c" horiz-adv-x="952" d="M63 516q0 121 35 221.5t101.5 172t161 110.5t212.5 39q76 0 137.5 -16.5t105.5 -38t70.5 -41t35.5 -27.5l-123 -188q-10 6 -28.5 18t-45.5 24.5t-61.5 21.5t-75.5 9q-113 0 -180.5 -74.5t-67.5 -230.5q0 -162 66.5 -234.5t195.5 -72.5q86 0 135 22.5t78 40.5l103 -190 q-18 -12 -48 -31.5t-73 -37t-99.5 -30t-126.5 -12.5q-125 0 -220 39t-158.5 109.5t-96.5 172t-33 224.5z" />
<glyph unicode="d" horiz-adv-x="1157" d="M68 516q0 113 25.5 211t78.5 172t134 117t192 43q113 0 181.5 -38t100.5 -85v600h275v-1536h-234l-8 104q-41 -41 -111.5 -78.5t-189.5 -37.5q-86 0 -166 26.5t-142.5 88t-99 163t-36.5 250.5zM344 516q0 -162 55 -234.5t170 -72.5q41 0 76 11t61.5 26.5t45 34t28.5 34.5 v187q0 72 -11 131t-36.5 101t-70 65.5t-107.5 23.5q-111 0 -161 -80.5t-50 -226.5z" />
<glyph unicode="e" horiz-adv-x="1058" d="M68 522q0 121 30.5 220.5t92 170t150.5 108.5t206 38q225 0 347 -135.5t122 -434.5v-59h-680q8 -102 83 -164.5t208 -62.5q96 0 165.5 14t106.5 27l62 -205q-29 -16 -118 -42t-231 -26q-117 0 -217 35t-172.5 103.5t-113.5 172t-41 240.5zM336 629h422q-18 211 -211 211 q-100 0 -150.5 -57.5t-60.5 -153.5z" />
<glyph unicode="f" horiz-adv-x="759" d="M10 801v231h180v82q0 88 19.5 170t67 143.5t126 98.5t197.5 37q86 0 143.5 -11.5t79.5 -17.5l-24 -215q-27 6 -56.5 10t-70.5 4q-102 0 -153.5 -47t-51.5 -164v-90h272v-231h-272v-801h-277v801h-180z" />
<glyph unicode="g" horiz-adv-x="1110" d="M33 -188q0 80 35.5 138t87.5 97q-41 33 -59.5 81t-18.5 99q0 68 37 127.5t78 100.5q-51 47 -74 111.5t-23 123.5q0 100 41 171t105.5 115t144.5 63.5t158 19.5q51 0 90 -4t69.5 -9.5t57 -9.5t55.5 -4h260v-188h-30q-31 0 -68 4t-70 10q41 -35 60.5 -88t19.5 -106 q0 -94 -37 -160t-99 -106t-142 -58t-166 -18q-49 0 -101.5 10t-97.5 26q-14 -16 -25.5 -36.5t-11.5 -42.5q0 -43 31 -69t131 -30l225 -8q88 -4 160 -21.5t123 -52.5t78.5 -88t27.5 -127q0 -80 -37.5 -147.5t-109.5 -116.5t-178.5 -76.5t-243.5 -27.5q-74 0 -159 11 t-156.5 44t-119.5 91t-48 151zM266 -158q0 -78 64.5 -107.5t183.5 -29.5q156 0 229.5 40t73.5 105q0 53 -38 75t-103 24l-164 4q-59 2 -108.5 6t-86.5 14q-23 -27 -37 -58.5t-14 -72.5zM358 690q0 -49 16.5 -82t42 -53t59.5 -29.5t69 -9.5t68.5 8t59 28.5t42 54.5t16.5 83 q0 47 -15.5 81t-42 55.5t-59 30.5t-69.5 9t-70 -9t-59.5 -30.5t-42 -55.5t-15.5 -81z" />
<glyph unicode="h" horiz-adv-x="1124" d="M102 0v1536h275v-618q35 53 107.5 97t193.5 44q182 0 265 -107.5t83 -296.5v-655h-274v616q0 119 -44 163t-122 44q-66 0 -106 -27.5t-63.5 -73.5t-31.5 -105.5t-8 -124.5v-492h-275z" />
<glyph unicode="i" horiz-adv-x="495" d="M92 1348q0 70 42 117.5t114 47.5t113.5 -46.5t41.5 -118.5t-42 -119t-113 -47q-72 0 -114 48t-42 118zM111 0v1032h274v-1032h-274z" />
<glyph unicode="j" horiz-adv-x="501" d="M-209 -446l27 221q23 -6 55.5 -11.5t67.5 -5.5q55 0 90 18.5t53 52.5t25.5 84t7.5 114v1005h274v-1055q0 -225 -96 -337.5t-311 -112.5q-47 0 -100.5 8t-92.5 19zM98 1348q0 70 42 117.5t114 47.5t114 -46.5t42 -118.5t-42 -119t-114 -47t-114 48t-42 118z" />
<glyph unicode="k" horiz-adv-x="1099" d="M102 0v1536h275v-981l373 477h319l-387 -465l422 -567h-330l-397 549v-549h-275z" />
<glyph unicode="l" horiz-adv-x="495" d="M111 0v1536h274v-1536h-274z" />
<glyph unicode="m" horiz-adv-x="1724" d="M102 0v1032h250l13 -133q14 27 41.5 55.5t64.5 52t82 38t94 14.5q217 0 293 -156q43 68 122 112t195 44q188 0 278.5 -105.5t90.5 -298.5v-655h-274v623q0 200 -154 200h-2q-53 0 -91 -24.5t-60.5 -68.5t-33 -105.5t-10.5 -135.5v-489h-274v623q0 200 -154 200h-2 q-53 0 -91 -24.5t-60.5 -68.5t-32.5 -105.5t-10 -135.5v-489h-275z" />
<glyph unicode="n" horiz-adv-x="1124" d="M102 0v1032h250l13 -133q18 31 45.5 59.5t66.5 51t88 36t113 13.5q182 0 265 -107.5t83 -296.5v-655h-274v616q0 119 -44 163t-122 44q-66 0 -106 -27.5t-63.5 -73.5t-31.5 -105.5t-8 -124.5v-492h-275z" />
<glyph unicode="o" horiz-adv-x="1144" d="M68 516q0 125 33.5 225.5t99 171t159 109.5t213.5 39q119 0 213.5 -39t159 -109.5t98 -171t33.5 -225.5t-33.5 -225.5t-98 -171t-159 -109.5t-213.5 -39q-121 0 -214 39t-158.5 109.5t-99 171t-33.5 225.5zM342 516q0 -150 57.5 -230.5t173.5 -80.5q117 0 173.5 82 t56.5 229t-56.5 229t-173.5 82t-174 -80.5t-57 -230.5z" />
<glyph unicode="p" horiz-adv-x="1159" d="M102 -451v1483h248l8 -127q14 27 42 54.5t66 49t86 36t103 14.5q113 0 195 -40t136 -110.5t80 -169t26 -215.5q0 -143 -40 -245.5t-104.5 -169t-149.5 -98t-173 -31.5q-133 0 -248 63v-494h-275zM377 262q47 -29 97.5 -41t103.5 -12q106 0 170.5 76.5t64.5 238.5 q0 145 -51 222t-162 77q-123 0 -173 -87t-50 -253v-221z" />
<glyph unicode="q" horiz-adv-x="1159" d="M68 522q0 117 25.5 216.5t79.5 170t137 110.5t200 40q63 0 112.5 -15.5t85 -37t58 -46t35.5 -42.5l8 114h248v-1483h-275v519q-47 -41 -117.5 -64.5t-144.5 -23.5q-86 0 -168 30.5t-145.5 97t-101 169t-37.5 245.5zM346 522q0 -84 16.5 -143.5t46 -97t71.5 -55t93 -17.5 q82 0 136.5 28.5t72.5 59.5v192q0 68 -10 129.5t-36.5 106.5t-69.5 71.5t-107 26.5q-111 0 -162 -78.5t-51 -222.5z" />
<glyph unicode="r" horiz-adv-x="782" d="M102 0v1032h250l10 -149q14 29 42 58.5t66 54t84 40t97 15.5q61 0 85 -4.5t40 -10.5l-28 -233q-10 4 -36 9t-73 5q-49 0 -96 -20.5t-84 -68.5t-59.5 -125t-22.5 -187v-416h-275z" />
<glyph unicode="s" horiz-adv-x="954" d="M33 94l92 187q27 -16 66.5 -33t87 -30t100.5 -22.5t106 -9.5q72 0 112 23.5t40 71.5q0 45 -33 71.5t-117 42.5l-125 25q-63 12 -118.5 35.5t-95 60.5t-62.5 91.5t-23 127.5q0 68 28 127.5t80 102.5t128 68.5t172 25.5q129 0 232.5 -29t162.5 -67l-80 -189 q-43 20 -121.5 44t-177.5 24q-23 0 -52 -3t-57 -13.5t-46.5 -30t-18.5 -52.5t24.5 -57t106.5 -41l123 -24q174 -33 253 -112t79 -208q0 -154 -104.5 -242t-327.5 -88q-147 0 -261 40t-173 83z" />
<glyph unicode="t" horiz-adv-x="792" d="M10 801v231h187v262l274 62v-324h266v-231h-266v-447q0 -90 41 -116.5t113 -26.5q43 0 74.5 4t54.5 8l18 -221q-29 -6 -85 -14t-134 -8q-193 0 -274.5 89t-81.5 240v492h-187z" />
<glyph unicode="u" horiz-adv-x="1124" d="M98 377v655h275v-639q0 -106 45 -145t108 -39q66 0 109 26.5t67.5 72.5t35 107.5t10.5 133.5v483h274v-1032h-250l-10 127q-41 -66 -120 -110t-204 -44q-182 0 -261 106.5t-79 297.5z" />
<glyph unicode="v" horiz-adv-x="1073" d="M27 1032h292l220 -762l215 762h293l-369 -1032h-287z" />
<glyph unicode="w" horiz-adv-x="1452" d="M25 1032h266l162 -741l157 698h252l156 -698l160 741h249l-280 -1032h-268l-152 629l-154 -629h-266z" />
<glyph unicode="x" horiz-adv-x="1046" d="M10 0l350 535l-333 497h317l188 -305l173 305h290l-317 -500l358 -532h-321l-211 336l-203 -336h-291z" />
<glyph unicode="y" horiz-adv-x="1038" d="M10 1032h293l225 -651l236 651h283l-621 -1483h-266l223 527z" />
<glyph unicode="z" horiz-adv-x="1007" d="M63 0v203l537 608h-512v221h856v-205l-543 -606h537v-221h-875z" />
<glyph unicode="{" horiz-adv-x="737" d="M76 514v229q96 16 130 69.5t34 125.5v221q0 88 23.5 157.5t78.5 119t143 75t217 25.5v-231q-72 0 -111.5 -17.5t-61 -45.5t-26.5 -65.5t-5 -76.5v-240q0 -80 -34 -135t-102 -96q68 -41 102 -95.5t34 -136.5v-239q0 -39 5 -76t26.5 -65.5t61.5 -46t111 -17.5v-232 q-129 0 -218 26t-143 75t-77.5 118.5t-23.5 159.5v219q0 72 -34 125.5t-130 69.5z" />
<glyph unicode="|" horiz-adv-x="542" d="M143 -453v1989h256v-1989h-256z" />
<glyph unicode="}" horiz-adv-x="737" d="M35 -47q72 0 112.5 17.5t61 46t26 65.5t5.5 76v239q0 82 33.5 136.5t101.5 95.5q-68 41 -101.5 96t-33.5 135v240q0 39 -5.5 76.5t-27 65.5t-62.5 45.5t-110 17.5v231q129 0 218 -25.5t143.5 -75t78 -119t23.5 -157.5v-221q0 -72 33.5 -125t130.5 -70v-229 q-96 -16 -130 -69.5t-34 -125.5v-219q0 -90 -23.5 -159.5t-78 -118.5t-142.5 -75t-219 -26v232z" />
<glyph unicode="~" d="M6 868q31 33 70 65t84 56.5t98 39.5t113 15q72 0 130 -27.5t105 -55.5q37 -23 75 -46.5t77 -23.5q70 0 121 26.5t110 83.5l144 -172q-31 -35 -70 -68.5t-85 -60t-97.5 -42t-108.5 -15.5q-72 0 -131 29.5t-106 58.5q-37 23 -75 41.5t-77 18.5q-70 0 -122 -25t-114 -82z " />
<glyph unicode="&#xa1;" horiz-adv-x="614" d="M147 879q0 72 43 121t117 49t117 -47t43 -123t-43 -123t-117 -47t-117 49t-43 121zM162 -410v981h289v-981h-289z" />
<glyph unicode="&#xa2;" d="M133 711q0 111 30 203t86 161.5t136 113.5t178 56v195h152v-193q63 -6 113.5 -20.5t87 -32.5t62.5 -36.5t38 -31.5l-121 -184q-29 27 -73 50.5t-109 29.5v-631q78 4 126 26.5t76 39.5l97 -176q-16 -12 -42 -30t-63 -35t-85 -30.5t-111 -19.5v-193h-148v195 q-217 27 -323.5 167t-106.5 376zM395 709q0 -131 44 -203t124 -98v600q-78 -27 -123 -100.5t-45 -198.5z" />
<glyph unicode="&#xa3;" d="M121 659v224h141q-10 45 -17 92t-7 94q0 82 25.5 155.5t81.5 129t145.5 87.5t214.5 32q74 0 137 -16.5t113.5 -41t86 -52.5t54.5 -48l-146 -182q-8 8 -28.5 25.5t-52 34.5t-71.5 30.5t-87 13.5q-102 0 -149.5 -49t-47.5 -121q0 -61 5 -107.5t13 -76.5h328v-224h-291 q4 -29 6.5 -58.5t2.5 -51.5q0 -59 -16.5 -111.5t-39 -93.5t-46 -68.5t-38.5 -39.5h623v-236h-914v213q59 61 105.5 147t46.5 205v45t-2 49h-176z" />
<glyph unicode="&#xa4;" d="M-6 272l172 170q-70 109 -70 265q0 154 72 262l-174 174l135 137l174 -178q57 35 124 54.5t138 19.5q143 0 256 -70l185 184l141 -143l-180 -180q33 -53 51 -120t18 -140q0 -154 -71 -263l172 -172l-136 -135l-174 172q-55 -37 -122.5 -55t-139.5 -18q-150 0 -262 73 l-174 -172zM340 707q0 -111 65.5 -175.5t159.5 -64.5q98 0 163 64.5t65 175.5t-64.5 174t-163.5 63q-94 0 -159.5 -63.5t-65.5 -173.5z" />
<glyph unicode="&#xa5;" d="M-12 1440h301l289 -582l284 582h289l-389 -701h250v-176h-310v-129h310v-176h-310v-258h-270v258h-303v176h303v129h-303v176h244z" />
<glyph unicode="&#xa6;" horiz-adv-x="542" d="M143 272h256v-723h-256v723zM143 815v721h256v-721h-256z" />
<glyph unicode="&#xa7;" horiz-adv-x="1124" d="M102 670q0 86 36 159.5t100 133.5q-37 41 -59.5 100t-22.5 139q0 76 28.5 142.5t81.5 114.5t130 76t173 28q131 0 235.5 -30t164.5 -69l-92 -192q-59 31 -134 52.5t-153 21.5q-35 0 -68 -8.5t-58.5 -26t-40.5 -46t-15 -67.5q0 -53 36.5 -87t98.5 -58l168 -68 q66 -27 121 -59.5t95 -76.5t62.5 -101.5t22.5 -133.5q0 -92 -38 -166.5t-100 -132.5q35 -41 63 -97t28 -136q0 -76 -30 -141.5t-84 -114.5t-133 -77t-177 -28q-131 0 -236.5 31t-165.5 70l94 192q41 -20 114 -47.5t173 -27.5q31 0 62.5 7t58.5 24.5t43 47t16 72.5 q0 47 -31.5 80t-103.5 61l-166 68q-66 27 -120 59.5t-93 75.5t-61.5 100.5t-22.5 135.5zM344 702q0 -41 14.5 -69.5t39 -50t58 -38t72.5 -32.5l105 -45q8 -4 36.5 -16.5t39.5 -16.5q25 33 41 70t16 78t-14.5 69.5t-40 50t-59.5 38t-72 32.5l-105 45q-4 2 -31.5 13.5 t-40.5 17.5q-29 -35 -44 -71t-15 -75z" />
<glyph unicode="&#xa8;" horiz-adv-x="983" d="M98 1380q0 68 42 116t112 48t112 -46t42 -118t-42 -117.5t-112 -45.5t-112 48t-42 115zM578 1380q0 68 42 116t111 48q70 0 112 -46t42 -118t-42 -117.5t-112 -45.5t-111.5 48t-41.5 115z" />
<glyph unicode="&#xa9;" horiz-adv-x="1581" d="M45 723q0 156 57.5 293t157.5 238.5t236.5 160t296.5 58.5q158 0 294 -58.5t235 -160t156.5 -238.5t57.5 -293q0 -158 -57.5 -295t-157.5 -238.5t-236.5 -159t-293.5 -57.5q-158 0 -294.5 57.5t-236.5 159t-157.5 238.5t-57.5 295zM248 721q0 -119 41 -220.5t112.5 -176 t172 -117.5t217.5 -43t216 43t170.5 117.5t112.5 176t41 220.5t-41 220t-112.5 177t-170 119t-214.5 43q-117 0 -217.5 -43t-173 -119t-113.5 -177t-41 -220zM438 721q0 178 96.5 284.5t274.5 106.5q57 0 104.5 -12.5t80 -27.5t52 -29.5t23.5 -18.5l-68 -139q-8 8 -62 30.5 t-126 22.5q-82 0 -132 -53t-50 -164q0 -113 50 -166t132 -53q72 0 122 17.5t66 25.5l64 -137q-4 -4 -24.5 -17.5t-53.5 -27t-78 -23.5t-100 -10q-180 0 -275.5 102.5t-95.5 288.5z" />
<glyph unicode="&#xaa;" horiz-adv-x="737" d="M53 547v170h582v-170h-582zM53 1018q0 94 64.5 156.5t218.5 62.5q66 0 96 -10v18q0 92 -117 92q-53 0 -98 -13t-80 -30l-49 133q23 14 88.5 34t157.5 20q57 0 111.5 -12.5t96.5 -40t67.5 -74.5t25.5 -115v-405h-158l-6 69q-33 -39 -84 -62.5t-111 -23.5q-92 0 -157.5 47 t-65.5 154zM242 1028q0 -35 19.5 -51t47.5 -16q57 0 89 28.5t32 75.5v37q-4 0 -25.5 4t-56.5 4t-70.5 -17.5t-35.5 -64.5z" />
<glyph unicode="&#xab;" horiz-adv-x="1046" d="M61 512l236 395h252l-227 -395l227 -395h-252zM497 512l236 395h252l-227 -395l227 -395h-252z" />
<glyph unicode="&#xac;" d="M119 770v238h901v-609h-246v371h-655z" />
<glyph unicode="&#xad;" horiz-adv-x="831" d="M82 442v263h668v-263h-668z" />
<glyph unicode="&#xae;" horiz-adv-x="1581" d="M45 723q0 156 57.5 293t157.5 238.5t236.5 160t296.5 58.5q158 0 294 -58.5t235 -160t156.5 -238.5t57.5 -293q0 -158 -57.5 -295t-157.5 -238.5t-236.5 -159t-293.5 -57.5q-158 0 -294.5 57.5t-236.5 159t-157.5 238.5t-57.5 295zM248 721q0 -117 41 -219.5t112.5 -177 t172 -117.5t217.5 -43t216 43t170.5 117.5t112.5 177t41 219.5t-41 219t-112.5 178t-170 119t-214.5 43q-117 0 -217.5 -43t-173 -119t-113.5 -178t-41 -219zM510 338v764h297q74 0 125 -22.5t83 -57.5t45 -77t13 -79q0 -98 -37 -151t-98 -78l170 -299h-199l-141 270h-80 v-270h-178zM688 768h82q123 0 123 88q0 47 -28.5 67.5t-88.5 20.5h-88v-176z" />
<glyph unicode="&#xaf;" horiz-adv-x="983" d="M176 1231v217h631v-217h-631z" />
<glyph unicode="&#xb0;" horiz-adv-x="958" d="M166 1139q0 66 23.5 122t65.5 97t99.5 63.5t122.5 22.5q68 0 125 -22.5t99 -62.5t67 -96t25 -122q0 -68 -25 -123t-67 -96t-99 -63.5t-123 -22.5q-68 0 -125 22.5t-99 62.5t-65.5 96t-23.5 122zM338 1139q0 -61 40 -102.5t101 -41.5t101.5 41.5t40.5 104.5q0 59 -40 100 t-104 41q-59 0 -99 -41t-40 -102z" />
<glyph unicode="&#xb1;" d="M76 0v238h985v-238h-985zM76 780v238h370v373h246v-373h369v-238h-369v-372h-246v372h-370z" />
<glyph unicode="&#xb2;" horiz-adv-x="757" d="M45 1300q14 18 41 45t67 51.5t91 41t116 16.5q84 0 140.5 -21.5t91.5 -55.5t49 -72.5t14 -71.5q0 -86 -57 -151.5t-137 -118.5q-39 -25 -63.5 -42.5t-40 -32t-22.5 -28.5t-13 -33h356v-174h-606v41q0 111 48 197t173 164q74 47 104.5 84t30.5 69q0 35 -23.5 56.5 t-70.5 21.5q-41 0 -88 -27.5t-88 -74.5z" />
<glyph unicode="&#xb3;" horiz-adv-x="757" d="M70 1360q18 16 50 32.5t72.5 31t88 22.5t96.5 8q80 0 134 -17.5t88 -47t49.5 -67.5t15.5 -81q0 -63 -37 -109.5t-88 -70.5q61 -20 101 -66.5t40 -113.5q0 -119 -90 -181.5t-250 -62.5q-74 0 -149.5 12.5t-116.5 24.5l32 168q41 -14 97.5 -23.5t103.5 -9.5q86 0 122 23.5 t36 68.5q0 35 -33 54.5t-127 19.5h-82v151h78q86 0 118 25t32 59q0 29 -28 52.5t-89 23.5q-37 0 -69 -8t-56.5 -19.5t-41.5 -22.5t-26 -17z" />
<glyph unicode="&#xb4;" horiz-adv-x="987" d="M201 1333l483 269l102 -207l-503 -228z" />
<glyph unicode="&#xb5;" horiz-adv-x="1134" d="M106 -451v1483h275v-629q0 -104 44 -149t110 -45q68 0 110.5 25.5t67 70.5t35 105.5t10.5 132.5v489h274v-1032h-250l-10 135q-31 -66 -87 -114t-148 -48q-49 0 -92.5 17.5t-71.5 52.5v-494h-267z" />
<glyph unicode="&#xb6;" horiz-adv-x="1327" d="M59 999q0 117 39 201t108.5 137.5t168 78t219.5 24.5h590v-1719h-236v1496h-155v-1496h-238v848q-115 0 -206 31t-155.5 87t-99.5 135t-35 177z" />
<glyph unicode="&#xb7;" horiz-adv-x="503" d="M92 739q0 72 43 121t117 49t117 -47t43 -123t-43 -123t-117 -47t-117 49.5t-43 120.5z" />
<glyph unicode="&#xb8;" horiz-adv-x="983" d="M225 -518l43 147q35 -10 74 -18t80 -8q135 0 135 75q0 27 -27.5 47.5t-93.5 20.5q-31 0 -57.5 -3t-40.5 -7l61 264h160l-20 -111q104 -10 161.5 -60t57.5 -148q0 -119 -87 -176.5t-229 -57.5q-88 0 -147 15.5t-70 19.5z" />
<glyph unicode="&#xb9;" horiz-adv-x="757" d="M96 1268l320 172h178v-787h-215v570l-197 -109z" />
<glyph unicode="&#xba;" horiz-adv-x="733" d="M45 1149q0 147 84 240.5t238 93.5t237.5 -92.5t83.5 -241.5q0 -154 -82.5 -244t-238.5 -90t-239 90t-83 244zM51 547v170h631v-170h-631zM248 1149q0 -86 30 -133t89 -47t87.5 47t28.5 133t-29.5 134t-86.5 48q-53 0 -86 -48t-33 -134z" />
<glyph unicode="&#xbb;" horiz-adv-x="1046" d="M61 117l228 395l-228 395h252l236 -395l-236 -395h-252zM497 117l228 395l-228 395h252l236 -395l-236 -395h-252z" />
<glyph unicode="&#xbc;" horiz-adv-x="1802" d="M30 1268l320 172h178v-787h-215v570l-197 -109zM379 0l778 1440h256l-778 -1440h-256zM1071 162v135l248 506h221l-225 -467h139v133h190v-133h99v-174h-99v-146h-190v146h-383z" />
<glyph unicode="&#xbd;" horiz-adv-x="1802" d="M0 1268l320 172h178v-787h-215v570l-197 -109zM349 0l778 1440h256l-778 -1440h-256zM1124 663q14 18 41 45t67 51.5t91 41t116 16.5q84 0 140.5 -21.5t91.5 -55.5t49 -72.5t14 -71.5q0 -86 -57 -151.5t-137 -118.5q-39 -25 -63.5 -42.5t-40 -32t-22.5 -28.5t-13 -33h356 v-174h-606v41q0 111 48 197t173 164q74 47 104.5 84t30.5 69q0 35 -23.5 56.5t-70.5 21.5q-41 0 -88 -27.5t-88 -74.5z" />
<glyph unicode="&#xbe;" horiz-adv-x="1802" d="M56 1360q18 16 50 32.5t72.5 31t88 22.5t96.5 8q80 0 134 -17.5t88 -47t49.5 -67.5t15.5 -81q0 -63 -37 -109.5t-88 -70.5q61 -20 101 -66.5t40 -113.5q0 -119 -90 -181.5t-250 -62.5q-74 0 -149.5 12.5t-116.5 24.5l32 168q41 -14 97.5 -23.5t103.5 -9.5q86 0 122 23.5 t36 68.5q0 35 -33 54.5t-127 19.5h-82v151h78q86 0 118 25t32 59q0 29 -28 52.5t-89 23.5q-37 0 -69 -8t-56.5 -19.5t-41.5 -22.5t-26 -17zM410 0l778 1440h256l-778 -1440h-256zM1102 162v135l248 506h221l-225 -467h139v133h190v-133h99v-174h-99v-146h-190v146h-383z" />
<glyph unicode="&#xbf;" horiz-adv-x="1107" d="M102 -55q0 68 17.5 118t46.5 88.5t65.5 69.5t73.5 60q33 25 65.5 52t58.5 62t41 79t15 104h269q0 -80 -14.5 -138.5t-42 -106.5t-67.5 -89t-91 -84q-25 -20 -50.5 -43t-46 -47.5t-34 -52t-13.5 -58.5q0 -59 48.5 -108.5t142.5 -49.5t180 41t154 107l139 -176 q-31 -37 -78 -75t-108.5 -68.5t-137.5 -50t-164 -19.5q-133 0 -223 35.5t-144 92t-78 125t-24 132.5zM449 887q0 70 48 117t117 47q70 0 117 -47t47 -117q0 -72 -47 -120t-117 -48t-117.5 48t-47.5 120z" />
<glyph unicode="&#xc0;" horiz-adv-x="1259" d="M16 0l471 1440h287l469 -1440h-289l-90 299h-491l-90 -299h-267zM332 1751l86 215l541 -244l-68 -172zM446 539h347l-170 567z" />
<glyph unicode="&#xc1;" horiz-adv-x="1259" d="M16 0l471 1440h287l469 -1440h-289l-90 299h-491l-90 -299h-267zM289 1722l541 244l86 -215l-559 -201zM446 539h347l-170 567z" />
<glyph unicode="&#xc2;" horiz-adv-x="1259" d="M16 0l471 1440h287l469 -1440h-289l-90 299h-491l-90 -299h-267zM205 1696l323 282h185l323 -282l-119 -142l-296 207l-297 -207zM446 539h347l-170 567z" />
<glyph unicode="&#xc3;" horiz-adv-x="1259" d="M16 0l471 1440h287l469 -1440h-289l-90 299h-491l-90 -299h-267zM204 1577q0 78 19.5 137.5t53.5 99t79 60t96 20.5q68 0 114 -14t84 -31.5t70.5 -32t71.5 -14.5q51 0 68.5 29t17.5 82h187q0 -158 -73 -237t-190 -79q-51 0 -95 12.5t-83 28t-73.5 28.5t-69.5 13 q-90 0 -90 -102h-187zM446 539h347l-170 567z" />
<glyph unicode="&#xc4;" horiz-adv-x="1259" d="M16 0l471 1440h287l469 -1440h-289l-90 299h-491l-90 -299h-267zM225 1782q0 68 42 116t112 48t111.5 -46t41.5 -118t-42 -118t-111 -46q-70 0 -112 48t-42 116zM446 539h347l-170 567zM713 1782q0 68 42 116t111 48q70 0 112 -46t42 -118t-42 -118t-112 -46t-111.5 48 t-41.5 116z" />
<glyph unicode="&#xc5;" horiz-adv-x="1259" d="M16 0l437 1335q-53 37 -84 94.5t-31 126.5q0 61 22.5 112.5t62.5 88.5t91 58.5t111 21.5q59 0 111 -21.5t91 -58.5t61.5 -88t22.5 -110q0 -68 -28.5 -124.5t-77.5 -91.5l438 -1343h-289l-90 299h-491l-90 -299h-267zM446 539h347l-170 567zM516 1556q0 -47 31 -78.5 t78 -31.5q45 0 76.5 31.5t31.5 78.5t-31.5 79t-76.5 32q-47 0 -78 -31.5t-31 -79.5z" />
<glyph unicode="&#xc6;" horiz-adv-x="1927" d="M16 0l783 1440h1046v-254h-606v-314h463v-254h-463v-364h627v-254h-910v381h-442l-203 -381h-295zM637 610h319v631z" />
<glyph unicode="&#xc7;" horiz-adv-x="1247" d="M86 709q0 162 42 301t125 240.5t206 158.5t282 57q147 0 261 -43t200 -116l-141 -199q-49 39 -116.5 72.5t-178.5 33.5q-98 0 -170 -36.5t-119 -103t-69.5 -160t-22.5 -205.5q0 -102 19.5 -191.5t62.5 -155t110.5 -102.5t163.5 -37q53 0 102.5 11.5t90.5 28t73.5 34.5 t53.5 35l135 -201q-80 -63 -186.5 -107t-251.5 -51l-17 -86q106 -12 173 -63t67 -150q0 -61 -24.5 -106t-67.5 -75t-102.5 -44t-129.5 -14q-90 0 -152.5 15t-72.5 20l45 153q35 -10 76 -19.5t82 -9.5q72 0 106.5 22t34.5 56q0 27 -29.5 47.5t-97.5 20.5q-31 0 -66.5 -2 t-50.5 -6l58 250q-248 39 -376 227t-128 500z" />
<glyph unicode="&#xc8;" horiz-adv-x="1105" d="M127 0v1440h897v-254h-610v-314h467v-254h-467v-364h630v-254h-917zM260 1751l86 215l541 -244l-68 -172z" />
<glyph unicode="&#xc9;" horiz-adv-x="1105" d="M127 0v1440h897v-254h-610v-314h467v-254h-467v-364h630v-254h-917zM282 1722l541 244l86 -215l-559 -201z" />
<glyph unicode="&#xca;" horiz-adv-x="1105" d="M127 0v1440h897v-254h-610v-314h467v-254h-467v-364h630v-254h-917zM172 1696l323 282h185l323 -282l-119 -142l-296 207l-297 -207z" />
<glyph unicode="&#xcb;" horiz-adv-x="1105" d="M127 0v1440h897v-254h-610v-314h467v-254h-467v-364h630v-254h-917zM182 1782q0 68 42 116t112 48t111.5 -46t41.5 -118t-42 -118t-111 -46q-70 0 -112 48t-42 116zM670 1782q0 68 42 116t111 48q70 0 112 -46t42 -118t-42 -118t-112 -46t-111.5 48t-41.5 116z" />
<glyph unicode="&#xcc;" horiz-adv-x="542" d="M-35 1751l86 215l541 -244l-68 -172zM127 0v1440h289v-1440h-289z" />
<glyph unicode="&#xcd;" horiz-adv-x="542" d="M-29 1722l541 244l86 -215l-559 -201zM127 0v1440h289v-1440h-289z" />
<glyph unicode="&#xce;" horiz-adv-x="542" d="M-143 1696l323 282h185l323 -282l-119 -142l-296 207l-297 -207zM127 0v1440h289v-1440h-289z" />
<glyph unicode="&#xcf;" horiz-adv-x="542" d="M-125 1782q0 68 42 116t112 48t111.5 -46t41.5 -118t-42 -118t-111 -46q-70 0 -112 48t-42 116zM127 0v1440h289v-1440h-289zM363 1782q0 68 42 116t111 48q70 0 112 -46t42 -118t-42 -118t-112 -46t-111.5 48t-41.5 116z" />
<glyph unicode="&#xd0;" horiz-adv-x="1466" d="M10 618v230h172v592h498q178 0 309 -52.5t218 -147.5t130 -227t43 -294q0 -164 -43 -297t-130 -226.5t-219 -144.5t-308 -51h-498v618h-172zM469 248h211q92 0 167 33.5t127 96t79.5 149.5t27.5 194q0 240 -109.5 355.5t-291.5 115.5h-211v-344h287v-230h-287v-370z" />
<glyph unicode="&#xd1;" horiz-adv-x="1363" d="M127 0v1440h276l570 -938v938h264v-1440h-264l-582 954v-954h-264zM264 1577q0 78 19.5 137.5t53.5 99t79 60t96 20.5q68 0 114 -14t84 -31.5t70.5 -32t71.5 -14.5q51 0 68.5 29t17.5 82h187q0 -158 -73 -237t-190 -79q-51 0 -95 12.5t-83 28t-73.5 28.5t-69.5 13 q-90 0 -90 -102h-187z" />
<glyph unicode="&#xd2;" horiz-adv-x="1480" d="M86 721q0 164 39 302t120 237.5t203.5 156t290.5 56.5t292 -56.5t205 -156t120 -237.5t39 -302t-39 -302t-120 -238.5t-205 -157t-292 -56.5t-290.5 56.5t-203.5 157t-120 238.5t-39 302zM385 721q0 -229 87 -360.5t267 -131.5t267.5 131.5t87.5 360.5t-87 359t-268 130 q-180 0 -267 -130t-87 -359zM405 1751l86 215l541 -244l-68 -172z" />
<glyph unicode="&#xd3;" horiz-adv-x="1480" d="M86 721q0 164 39 302t120 237.5t203.5 156t290.5 56.5t292 -56.5t205 -156t120 -237.5t39 -302t-39 -302t-120 -238.5t-205 -157t-292 -56.5t-290.5 56.5t-203.5 157t-120 238.5t-39 302zM385 721q0 -229 87 -360.5t267 -131.5t267.5 131.5t87.5 360.5t-87 359t-268 130 q-180 0 -267 -130t-87 -359zM440 1722l541 244l86 -215l-559 -201z" />
<glyph unicode="&#xd4;" horiz-adv-x="1480" d="M86 721q0 164 39 302t120 237.5t203.5 156t290.5 56.5t292 -56.5t205 -156t120 -237.5t39 -302t-39 -302t-120 -238.5t-205 -157t-292 -56.5t-290.5 56.5t-203.5 157t-120 238.5t-39 302zM328 1696l323 282h185l323 -282l-119 -142l-296 207l-297 -207zM385 721 q0 -229 87 -360.5t267 -131.5t267.5 131.5t87.5 360.5t-87 359t-268 130q-180 0 -267 -130t-87 -359z" />
<glyph unicode="&#xd5;" horiz-adv-x="1480" d="M86 721q0 164 39 302t120 237.5t203.5 156t290.5 56.5t292 -56.5t205 -156t120 -237.5t39 -302t-39 -302t-120 -238.5t-205 -157t-292 -56.5t-290.5 56.5t-203.5 157t-120 238.5t-39 302zM327 1577q0 78 19.5 137.5t53.5 99t79 60t96 20.5q68 0 114 -14t84 -31.5 t70.5 -32t71.5 -14.5q51 0 68.5 29t17.5 82h187q0 -158 -73 -237t-190 -79q-51 0 -95 12.5t-83 28t-73.5 28.5t-69.5 13q-90 0 -90 -102h-187zM385 721q0 -229 87 -360.5t267 -131.5t267.5 131.5t87.5 360.5t-87 359t-268 130q-180 0 -267 -130t-87 -359z" />
<glyph unicode="&#xd6;" horiz-adv-x="1480" d="M86 721q0 164 39 302t120 237.5t203.5 156t290.5 56.5t292 -56.5t205 -156t120 -237.5t39 -302t-39 -302t-120 -238.5t-205 -157t-292 -56.5t-290.5 56.5t-203.5 157t-120 238.5t-39 302zM344 1782q0 68 42 116t112 48t111.5 -46t41.5 -118t-42 -118t-111 -46 q-70 0 -112 48t-42 116zM385 721q0 -229 87 -360.5t267 -131.5t267.5 131.5t87.5 360.5t-87 359t-268 130q-180 0 -267 -130t-87 -359zM832 1782q0 68 42 116t111 48q70 0 112 -46t42 -118t-42 -118t-112 -46t-111.5 48t-41.5 116z" />
<glyph unicode="&#xd7;" d="M129 389l283 303l-283 305l170 158l270 -293l273 293l168 -158l-283 -305l283 -303l-170 -158l-271 293l-270 -293z" />
<glyph unicode="&#xd8;" horiz-adv-x="1480" d="M86 721q0 164 39 302t120 237.5t203.5 156t290.5 56.5q182 0 316 -68l106 168l180 -107l-120 -188q90 -104 132 -243.5t42 -313.5q0 -164 -39 -302t-120 -238.5t-205 -157t-292 -56.5q-92 0 -168.5 16.5t-144.5 51.5l-109 -172l-180 106l121 191q-88 104 -130 245.5 t-42 315.5zM385 721q0 -170 47 -287l471 737q-70 39 -164 39q-180 0 -267 -130t-87 -359zM575 268q70 -39 164 -39q180 0 267.5 131.5t87.5 360.5q0 84 -11.5 154.5t-35.5 128.5z" />
<glyph unicode="&#xd9;" horiz-adv-x="1347" d="M109 584v856h288v-828q0 -111 14.5 -186.5t47.5 -122.5t85 -67.5t130 -20.5q76 0 129 20.5t86 67.5t47 122t14 185v830h289v-858q0 -152 -29.5 -266.5t-97.5 -191.5t-175 -117t-263 -40q-158 0 -265.5 40t-174 118t-96 192.5t-29.5 266.5zM342 1751l86 215l541 -244 l-68 -172z" />
<glyph unicode="&#xda;" horiz-adv-x="1347" d="M109 584v856h288v-828q0 -111 14.5 -186.5t47.5 -122.5t85 -67.5t130 -20.5q76 0 129 20.5t86 67.5t47 122t14 185v830h289v-858q0 -152 -29.5 -266.5t-97.5 -191.5t-175 -117t-263 -40q-158 0 -265.5 40t-174 118t-96 192.5t-29.5 266.5zM405 1722l541 244l86 -215 l-559 -201z" />
<glyph unicode="&#xdb;" horiz-adv-x="1347" d="M109 584v856h288v-828q0 -111 14.5 -186.5t47.5 -122.5t85 -67.5t130 -20.5q76 0 129 20.5t86 67.5t47 122t14 185v830h289v-858q0 -152 -29.5 -266.5t-97.5 -191.5t-175 -117t-263 -40q-158 0 -265.5 40t-174 118t-96 192.5t-29.5 266.5zM260 1696l323 282h185l323 -282 l-119 -142l-296 207l-297 -207z" />
<glyph unicode="&#xdc;" horiz-adv-x="1347" d="M109 584v856h288v-828q0 -111 14.5 -186.5t47.5 -122.5t85 -67.5t130 -20.5q76 0 129 20.5t86 67.5t47 122t14 185v830h289v-858q0 -152 -29.5 -266.5t-97.5 -191.5t-175 -117t-263 -40q-158 0 -265.5 40t-174 118t-96 192.5t-29.5 266.5zM282 1782q0 68 42 116t112 48 t111.5 -46t41.5 -118t-42 -118t-111 -46q-70 0 -112 48t-42 116zM770 1782q0 68 42 116t111 48q70 0 112 -46t42 -118t-42 -118t-112 -46t-111.5 48t-41.5 116z" />
<glyph unicode="&#xdd;" horiz-adv-x="1232" d="M20 1440h302l301 -559l299 559h290l-452 -809v-631h-289v631zM370 1722l541 244l86 -215l-559 -201z" />
<glyph unicode="&#xde;" horiz-adv-x="1171" d="M127 0v1440h285v-238h182q150 0 252 -41t164.5 -107.5t89 -150.5t26.5 -170q0 -84 -27.5 -168t-91 -150.5t-169 -108.5t-260.5 -42h-166v-264h-285zM412 506h161q57 0 106.5 12t85.5 39t56.5 70t20.5 106t-20.5 107.5t-55.5 71t-80 38t-96 11.5h-178v-455z" />
<glyph unicode="&#xdf;" horiz-adv-x="1257" d="M100 0v1083q0 231 132.5 354.5t367.5 123.5q111 0 195 -27t139 -72t84 -107.5t29 -131.5q0 -88 -38 -145.5t-89 -106.5q-51 -47 -84 -85t-33 -79q0 -55 41 -85t125 -69q119 -55 188.5 -133t69.5 -215q0 -72 -26.5 -132t-81 -105t-134.5 -70t-184 -25q-106 0 -192.5 26 t-119.5 48l74 197q51 -27 109.5 -41.5t95.5 -14.5q29 0 60.5 6.5t58 21.5t44 41t17.5 65q0 63 -50 104t-161 86q-66 27 -106.5 57.5t-63 64.5t-31 70.5t-8.5 77.5q0 76 41 129.5t95 106.5q41 41 79.5 90t38.5 102q0 35 -15 60.5t-42 42t-59.5 23.5t-67.5 7q-63 0 -105 -21.5 t-68 -57t-36 -83.5t-10 -102v-1079h-279z" />
<glyph unicode="&#xe0;" horiz-adv-x="1040" d="M51 307q0 174 106.5 262t321.5 88q29 0 61.5 -2t62.5 -5t51.5 -5t27.5 -4v37q0 82 -53.5 122t-145.5 40q-123 0 -200.5 -29t-108.5 -49l-80 190q14 10 47 28.5t85.5 36t122 31t159.5 13.5q231 0 332.5 -103.5t101.5 -277.5v-680h-235l-9 104q-39 -47 -112.5 -88 t-184.5 -41q-68 0 -130 16.5t-111 54.5t-79 101.5t-30 159.5zM219 1395l102 207l483 -269l-81 -166zM303 313q0 -66 42 -101.5t114 -35.5q100 0 161.5 56.5t61.5 138.5v80q-35 6 -82 12t-115 6q-104 0 -143 -39t-39 -117z" />
<glyph unicode="&#xe1;" horiz-adv-x="1040" d="M51 307q0 174 106.5 262t321.5 88q29 0 61.5 -2t62.5 -5t51.5 -5t27.5 -4v37q0 82 -53.5 122t-145.5 40q-123 0 -200.5 -29t-108.5 -49l-80 190q14 10 47 28.5t85.5 36t122 31t159.5 13.5q231 0 332.5 -103.5t101.5 -277.5v-680h-235l-9 104q-39 -47 -112.5 -88 t-184.5 -41q-68 0 -130 16.5t-111 54.5t-79 101.5t-30 159.5zM269 1333l483 269l102 -207l-503 -228zM303 313q0 -66 42 -101.5t114 -35.5q100 0 161.5 56.5t61.5 138.5v80q-35 6 -82 12t-115 6q-104 0 -143 -39t-39 -117z" />
<glyph unicode="&#xe2;" horiz-adv-x="1040" d="M51 307q0 174 106.5 262t321.5 88q29 0 61.5 -2t62.5 -5t51.5 -5t27.5 -4v37q0 82 -53.5 122t-145.5 40q-123 0 -200.5 -29t-108.5 -49l-80 190q14 10 47 28.5t85.5 36t122 31t159.5 13.5q231 0 332.5 -103.5t101.5 -277.5v-680h-235l-9 104q-39 -47 -112.5 -88 t-184.5 -41q-68 0 -130 16.5t-111 54.5t-79 101.5t-30 159.5zM125 1303l297 284h165l295 -284l-133 -132l-245 203l-244 -203zM303 313q0 -66 42 -101.5t114 -35.5q100 0 161.5 56.5t61.5 138.5v80q-35 6 -82 12t-115 6q-104 0 -143 -39t-39 -117z" />
<glyph unicode="&#xe3;" horiz-adv-x="1040" d="M51 307q0 174 106.5 262t321.5 88q29 0 61.5 -2t62.5 -5t51.5 -5t27.5 -4v37q0 82 -53.5 122t-145.5 40q-123 0 -200.5 -29t-108.5 -49l-80 190q14 10 47 28.5t85.5 36t122 31t159.5 13.5q231 0 332.5 -103.5t101.5 -277.5v-680h-235l-9 104q-39 -47 -112.5 -88 t-184.5 -41q-68 0 -130 16.5t-111 54.5t-79 101.5t-30 159.5zM82 1182q0 156 70.5 235.5t172.5 79.5q68 0 114 -16.5t84 -35t70.5 -34.5t71.5 -16q51 0 68.5 24.5t17.5 77.5h183q0 -158 -71 -235.5t-187 -77.5q-51 0 -95.5 16.5t-83.5 35.5t-73.5 35.5t-69.5 16.5 q-90 0 -90 -106h-182zM303 313q0 -66 42 -101.5t114 -35.5q100 0 161.5 56.5t61.5 138.5v80q-35 6 -82 12t-115 6q-104 0 -143 -39t-39 -117z" />
<glyph unicode="&#xe4;" horiz-adv-x="1040" d="M51 307q0 174 106.5 262t321.5 88q29 0 61.5 -2t62.5 -5t51.5 -5t27.5 -4v37q0 82 -53.5 122t-145.5 40q-123 0 -200.5 -29t-108.5 -49l-80 190q14 10 47 28.5t85.5 36t122 31t159.5 13.5q231 0 332.5 -103.5t101.5 -277.5v-680h-235l-9 104q-39 -47 -112.5 -88 t-184.5 -41q-68 0 -130 16.5t-111 54.5t-79 101.5t-30 159.5zM129 1380q0 68 42 116t112 48t112 -46t42 -118t-42 -117.5t-112 -45.5t-112 48t-42 115zM303 313q0 -66 42 -101.5t114 -35.5q100 0 161.5 56.5t61.5 138.5v80q-35 6 -82 12t-115 6q-104 0 -143 -39t-39 -117z M609 1380q0 68 42 116t111 48q70 0 112 -46t42 -118t-42 -117.5t-112 -45.5t-111.5 48t-41.5 115z" />
<glyph unicode="&#xe5;" horiz-adv-x="1040" d="M51 307q0 174 106.5 262t321.5 88q29 0 61.5 -2t62.5 -5t51.5 -5t27.5 -4v37q0 82 -53.5 122t-145.5 40q-123 0 -200.5 -29t-108.5 -49l-80 190q14 10 47 28.5t85.5 36t122 31t159.5 13.5q231 0 332.5 -103.5t101.5 -277.5v-680h-235l-9 104q-39 -47 -112.5 -88 t-184.5 -41q-68 0 -130 16.5t-111 54.5t-79 101.5t-30 159.5zM244 1403q0 59 22.5 110.5t62.5 88t91 58t111 21.5q59 0 111 -21.5t91 -58t61.5 -88t22.5 -108.5q0 -61 -22.5 -112.5t-61.5 -88.5t-91 -57.5t-109 -20.5q-59 0 -111.5 20.5t-92.5 57.5t-62.5 88t-22.5 111z M303 313q0 -66 42 -101.5t114 -35.5q100 0 161.5 56.5t61.5 138.5v80q-35 6 -82 12t-115 6q-104 0 -143 -39t-39 -117zM422 1403q0 -47 31.5 -80t77.5 -33q47 0 78.5 33t31.5 80t-31.5 78.5t-78.5 31.5q-45 0 -77 -31.5t-32 -78.5z" />
<glyph unicode="&#xe6;" horiz-adv-x="1671" d="M51 307q0 98 33 166t90 109t137 58t174 17q27 0 57.5 -2t58.5 -5t50.5 -5t30.5 -4v41q0 80 -53.5 119t-145.5 39q-119 0 -198.5 -29t-110.5 -49l-80 190q14 10 47 28.5t84 36t122 31t161 13.5q119 0 202 -39t136 -104q59 63 138 102t177 39q111 0 198 -32t146.5 -100.5 t91 -176t31.5 -258.5v-62h-680q4 -94 79 -160.5t212 -66.5q104 0 176 16.5t96 24.5l62 -205q-35 -18 -127 -43t-240 -25q-133 0 -241.5 48.5t-178.5 134.5q-20 -27 -53 -59t-79 -58.5t-108.5 -44t-144.5 -17.5q-68 0 -131 17.5t-111 56.5t-78 102.5t-30 155.5zM297 313 q0 -66 45 -101.5t117 -35.5q45 0 86 14.5t71.5 40t48 60.5t17.5 76v84q-39 6 -89 12t-114 6q-100 0 -141 -38t-41 -118zM948 629h422q-4 45 -17.5 84t-39 66.5t-63.5 44t-93 16.5q-100 0 -149.5 -58.5t-59.5 -152.5z" />
<glyph unicode="&#xe7;" horiz-adv-x="952" d="M63 516q0 121 35 221.5t101.5 172t161 110.5t212.5 39q76 0 137.5 -16.5t105.5 -38t70.5 -41t35.5 -27.5l-123 -188q-10 6 -28.5 18t-45.5 24.5t-61.5 21.5t-75.5 9q-113 0 -180.5 -74.5t-67.5 -230.5q0 -162 66.5 -234.5t195.5 -72.5q86 0 135 22.5t78 40.5l103 -190 q-18 -12 -48 -31.5t-72 -36t-96.5 -30t-123.5 -13.5l-15 -82q104 -10 161.5 -60t57.5 -148q0 -119 -87 -176.5t-228 -57.5q-88 0 -147.5 15.5t-69.5 19.5l43 147q35 -10 74 -18t79 -8q135 0 136 75q0 27 -28 47.5t-93 20.5q-31 0 -57.5 -3t-41.5 -7l60 252 q-178 41 -268.5 180t-90.5 348z" />
<glyph unicode="&#xe8;" horiz-adv-x="1058" d="M68 522q0 121 30.5 220.5t92 170t150.5 108.5t206 38q225 0 347 -135.5t122 -434.5v-59h-680q8 -102 83 -164.5t208 -62.5q96 0 165.5 14t106.5 27l62 -205q-29 -16 -118 -42t-231 -26q-117 0 -217 35t-172.5 103.5t-113.5 172t-41 240.5zM246 1395l102 207l483 -269 l-81 -166zM336 629h422q-18 211 -211 211q-100 0 -150.5 -57.5t-60.5 -153.5z" />
<glyph unicode="&#xe9;" horiz-adv-x="1058" d="M68 522q0 121 30.5 220.5t92 170t150.5 108.5t206 38q225 0 347 -135.5t122 -434.5v-59h-680q8 -102 83 -164.5t208 -62.5q96 0 165.5 14t106.5 27l62 -205q-29 -16 -118 -42t-231 -26q-117 0 -217 35t-172.5 103.5t-113.5 172t-41 240.5zM219 1333l483 269l102 -207 l-503 -228zM336 629h422q-18 211 -211 211q-100 0 -150.5 -57.5t-60.5 -153.5z" />
<glyph unicode="&#xea;" horiz-adv-x="1058" d="M68 522q0 121 30.5 220.5t92 170t150.5 108.5t206 38q225 0 347 -135.5t122 -434.5v-59h-680q8 -102 83 -164.5t208 -62.5q96 0 165.5 14t106.5 27l62 -205q-29 -16 -118 -42t-231 -26q-117 0 -217 35t-172.5 103.5t-113.5 172t-41 240.5zM164 1303l297 284h165l295 -284 l-133 -132l-245 203l-244 -203zM336 629h422q-18 211 -211 211q-100 0 -150.5 -57.5t-60.5 -153.5z" />
<glyph unicode="&#xeb;" horiz-adv-x="1058" d="M68 522q0 121 30.5 220.5t92 170t150.5 108.5t206 38q225 0 347 -135.5t122 -434.5v-59h-680q8 -102 83 -164.5t208 -62.5q96 0 165.5 14t106.5 27l62 -205q-29 -16 -118 -42t-231 -26q-117 0 -217 35t-172.5 103.5t-113.5 172t-41 240.5zM157 1380q0 68 42 116t112 48 t112 -46t42 -118t-42 -117.5t-112 -45.5t-112 48t-42 115zM336 629h422q-18 211 -211 211q-100 0 -150.5 -57.5t-60.5 -153.5zM637 1380q0 68 42 116t111 48q70 0 112 -46t42 -118t-42 -117.5t-112 -45.5t-111.5 48t-41.5 115z" />
<glyph unicode="&#xec;" horiz-adv-x="495" d="M-69 1395l102 207l483 -269l-81 -166zM111 0v1032h274v-1032h-274z" />
<glyph unicode="&#xed;" horiz-adv-x="495" d="M-45 1333l483 269l102 -207l-503 -228zM111 0v1032h274v-1032h-274z" />
<glyph unicode="&#xee;" horiz-adv-x="495" d="M-147 1303l297 284h165l295 -284l-133 -132l-245 203l-244 -203zM111 0v1032h274v-1032h-274z" />
<glyph unicode="&#xef;" horiz-adv-x="495" d="M-164 1380q0 68 42 116t112 48t112 -46t42 -118t-42 -117.5t-112 -45.5t-112 48t-42 115zM111 0v1032h274v-1032h-274zM316 1380q0 68 42 116t111 48q70 0 112 -46t42 -118t-42 -117.5t-112 -45.5t-111.5 48t-41.5 115z" />
<glyph unicode="&#xf0;" horiz-adv-x="1132" d="M59 479q0 113 32 206t91.5 158.5t144.5 101.5t191 36q66 0 134.5 -18.5t121.5 -63.5q-18 86 -58 161t-112 140l-192 -158l-125 140l153 127q-45 23 -99 41t-118 34l72 189q92 -18 172 -50t151 -73l179 152l125 -146l-146 -121q147 -135 225 -324.5t78 -424.5 q0 -139 -28.5 -252t-90 -193t-157.5 -124t-234 -44q-117 0 -211 35t-160.5 100.5t-102.5 158.5t-36 212zM317 479q0 -129 55.5 -202.5t196.5 -73.5q139 0 194.5 76.5t55.5 201.5q0 117 -59.5 196t-192.5 79t-191.5 -77t-58.5 -200z" />
<glyph unicode="&#xf1;" horiz-adv-x="1124" d="M102 0v1032h250l13 -133q18 31 45.5 59.5t66.5 51t88 36t113 13.5q182 0 265 -107.5t83 -296.5v-655h-274v616q0 119 -44 163t-122 44q-66 0 -106 -27.5t-63.5 -73.5t-31.5 -105.5t-8 -124.5v-492h-275zM144 1182q0 156 70.5 235.5t172.5 79.5q68 0 114 -16.5t84 -35 t70.5 -34.5t71.5 -16q51 0 68.5 24.5t17.5 77.5h183q0 -158 -71 -235.5t-187 -77.5q-51 0 -95.5 16.5t-83.5 35.5t-73.5 35.5t-69.5 16.5q-90 0 -90 -106h-182z" />
<glyph unicode="&#xf2;" horiz-adv-x="1144" d="M68 516q0 125 33.5 225.5t99 171t159 109.5t213.5 39q119 0 213.5 -39t159 -109.5t98 -171t33.5 -225.5t-33.5 -225.5t-98 -171t-159 -109.5t-213.5 -39q-121 0 -214 39t-158.5 109.5t-99 171t-33.5 225.5zM279 1395l102 207l483 -269l-81 -166zM342 516 q0 -150 57.5 -230.5t173.5 -80.5q117 0 173.5 82t56.5 229t-56.5 229t-173.5 82t-174 -80.5t-57 -230.5z" />
<glyph unicode="&#xf3;" horiz-adv-x="1144" d="M68 516q0 125 33.5 225.5t99 171t159 109.5t213.5 39q119 0 213.5 -39t159 -109.5t98 -171t33.5 -225.5t-33.5 -225.5t-98 -171t-159 -109.5t-213.5 -39q-121 0 -214 39t-158.5 109.5t-99 171t-33.5 225.5zM273 1333l483 269l102 -207l-503 -228zM342 516 q0 -150 57.5 -230.5t173.5 -80.5q117 0 173.5 82t56.5 229t-56.5 229t-173.5 82t-174 -80.5t-57 -230.5z" />
<glyph unicode="&#xf4;" horiz-adv-x="1144" d="M68 516q0 125 33.5 225.5t99 171t159 109.5t213.5 39q119 0 213.5 -39t159 -109.5t98 -171t33.5 -225.5t-33.5 -225.5t-98 -171t-159 -109.5t-213.5 -39q-121 0 -214 39t-158.5 109.5t-99 171t-33.5 225.5zM195 1303l297 284h165l295 -284l-133 -132l-245 203l-244 -203z M342 516q0 -150 57.5 -230.5t173.5 -80.5q117 0 173.5 82t56.5 229t-56.5 229t-173.5 82t-174 -80.5t-57 -230.5z" />
<glyph unicode="&#xf5;" horiz-adv-x="1144" d="M68 516q0 125 33.5 225.5t99 171t159 109.5t213.5 39q119 0 213.5 -39t159 -109.5t98 -171t33.5 -225.5t-33.5 -225.5t-98 -171t-159 -109.5t-213.5 -39q-121 0 -214 39t-158.5 109.5t-99 171t-33.5 225.5zM142 1182q0 156 70.5 235.5t172.5 79.5q68 0 114 -16.5t84 -35 t70.5 -34.5t71.5 -16q51 0 68.5 24.5t17.5 77.5h183q0 -158 -71 -235.5t-187 -77.5q-51 0 -95.5 16.5t-83.5 35.5t-73.5 35.5t-69.5 16.5q-90 0 -90 -106h-182zM342 516q0 -150 57.5 -230.5t173.5 -80.5q117 0 173.5 82t56.5 229t-56.5 229t-173.5 82t-174 -80.5t-57 -230.5 z" />
<glyph unicode="&#xf6;" horiz-adv-x="1144" d="M68 516q0 125 33.5 225.5t99 171t159 109.5t213.5 39q119 0 213.5 -39t159 -109.5t98 -171t33.5 -225.5t-33.5 -225.5t-98 -171t-159 -109.5t-213.5 -39q-121 0 -214 39t-158.5 109.5t-99 171t-33.5 225.5zM180 1380q0 68 42 116t112 48t112 -46t42 -118t-42 -117.5 t-112 -45.5t-112 48t-42 115zM342 516q0 -150 57.5 -230.5t173.5 -80.5q117 0 173.5 82t56.5 229t-56.5 229t-173.5 82t-174 -80.5t-57 -230.5zM660 1380q0 68 42 116t111 48q70 0 112 -46t42 -118t-42 -117.5t-112 -45.5t-111.5 48t-41.5 115z" />
<glyph unicode="&#xf7;" d="M80 588v237h981v-237h-981zM412 301q0 66 47 113t112 47q66 0 113 -47t47 -113q0 -68 -47 -114t-113 -46t-112.5 46t-46.5 114zM412 1106q0 68 47 115t112 47q66 0 113 -47t47 -115q0 -66 -47 -112t-113 -46t-112.5 46t-46.5 112z" />
<glyph unicode="&#xf8;" horiz-adv-x="1144" d="M68 516q0 125 33.5 225.5t99 171t159 109.5t213.5 39q137 0 244 -53l84 120l133 -86l-90 -131q66 -72 99.5 -172t33.5 -223q0 -125 -33.5 -225.5t-98 -171t-159 -109.5t-213.5 -39q-70 0 -129 13.5t-112 35.5l-86 -124l-133 86l92 133q-137 147 -137 401zM342 516 q0 -98 25 -166l311 455q-45 23 -105 22q-117 0 -174 -80.5t-57 -230.5zM471 225q41 -20 102 -20q117 0 173.5 82t56.5 229q0 90 -23 158z" />
<glyph unicode="&#xf9;" horiz-adv-x="1124" d="M98 377v655h275v-639q0 -106 45 -145t108 -39q66 0 109 26.5t67.5 72.5t35 107.5t10.5 133.5v483h274v-1032h-250l-10 127q-41 -66 -120 -110t-204 -44q-182 0 -261 106.5t-79 297.5zM244 1395l102 207l483 -269l-81 -166z" />
<glyph unicode="&#xfa;" horiz-adv-x="1124" d="M98 377v655h275v-639q0 -106 45 -145t108 -39q66 0 109 26.5t67.5 72.5t35 107.5t10.5 133.5v483h274v-1032h-250l-10 127q-41 -66 -120 -110t-204 -44q-182 0 -261 106.5t-79 297.5zM334 1333l483 269l102 -207l-503 -228z" />
<glyph unicode="&#xfb;" horiz-adv-x="1124" d="M98 377v655h275v-639q0 -106 45 -145t108 -39q66 0 109 26.5t67.5 72.5t35 107.5t10.5 133.5v483h274v-1032h-250l-10 127q-41 -66 -120 -110t-204 -44q-182 0 -261 106.5t-79 297.5zM197 1303l297 284h165l295 -284l-133 -132l-245 203l-244 -203z" />
<glyph unicode="&#xfc;" horiz-adv-x="1124" d="M98 377v655h275v-639q0 -106 45 -145t108 -39q66 0 109 26.5t67.5 72.5t35 107.5t10.5 133.5v483h274v-1032h-250l-10 127q-41 -66 -120 -110t-204 -44q-182 0 -261 106.5t-79 297.5zM166 1380q0 68 42 116t112 48t112 -46t42 -118t-42 -117.5t-112 -45.5t-112 48 t-42 115zM646 1380q0 68 42 116t111 48q70 0 112 -46t42 -118t-42 -117.5t-112 -45.5t-111.5 48t-41.5 115z" />
<glyph unicode="&#xfd;" horiz-adv-x="1038" d="M10 1032h293l225 -651l236 651h283l-621 -1483h-266l223 527zM303 1333l483 269l102 -207l-503 -228z" />
<glyph unicode="&#xfe;" horiz-adv-x="1159" d="M102 -451v1987h275v-602q39 47 109.5 86t168.5 39q113 0 195 -40t136 -110.5t80 -169t26 -215.5q0 -143 -40 -245.5t-104.5 -169t-149.5 -98t-173 -31.5q-133 0 -248 63v-494h-275zM377 262q47 -29 97.5 -41t103.5 -12q106 0 170.5 76.5t64.5 238.5q0 145 -51 222 t-162 77q-123 0 -173 -87t-50 -253v-221z" />
<glyph unicode="&#xff;" horiz-adv-x="1038" d="M10 1032h293l225 -651l236 651h283l-621 -1483h-266l223 527zM157 1380q0 68 42 116t112 48t112 -46t42 -118t-42 -117.5t-112 -45.5t-112 48t-42 115zM637 1380q0 68 42 116t111 48q70 0 112 -46t42 -118t-42 -117.5t-112 -45.5t-111.5 48t-41.5 115z" />
<glyph unicode="&#x152;" horiz-adv-x="1908" d="M86 719q0 164 41 297t125 227t213 145.5t307 51.5h1055v-254h-608v-314h462v-254h-462v-364h628v-254h-1065q-178 0 -309 49t-217 142.5t-128 226.5t-42 301zM385 721q0 -217 98.5 -342t288.5 -125h162v932h-160q-190 0 -289.5 -111.5t-99.5 -353.5z" />
<glyph unicode="&#x153;" horiz-adv-x="1785" d="M68 516q0 125 34.5 226.5t100 172t159.5 108.5t213 38q117 0 207 -38t150 -108q59 66 142 105t198 39q127 0 217 -39t146.5 -112.5t82 -179t25.5 -239.5v-59h-680q10 -98 80.5 -162.5t212.5 -64.5q100 0 168.5 15t103.5 26l62 -205q-41 -23 -133.5 -45.5t-229.5 -22.5 q-111 0 -217 40t-172 112q-59 -72 -150.5 -112t-212.5 -40q-117 0 -211 37t-160.5 106.5t-101 171t-34.5 230.5zM342 516q0 -150 56 -230.5t177 -80.5q123 0 177.5 83t54.5 228q0 147 -57.5 229t-174.5 82t-175 -79.5t-58 -231.5zM1063 629h422q-4 43 -16.5 81t-37 66.5 t-62.5 46t-95 17.5q-98 0 -149.5 -59.5t-61.5 -151.5z" />
<glyph unicode="&#x178;" horiz-adv-x="1232" d="M20 1440h302l301 -559l299 559h290l-452 -809v-631h-289v631zM231 1782q0 68 42 116t112 48t111.5 -46t41.5 -118t-42 -118t-111 -46q-70 0 -112 48t-42 116zM719 1782q0 68 42 116t111 48q70 0 112 -46t42 -118t-42 -118t-112 -46t-111.5 48t-41.5 116z" />
<glyph unicode="&#x2c6;" horiz-adv-x="983" d="M113 1303l297 284h165l295 -284l-133 -132l-245 203l-244 -203z" />
<glyph unicode="&#x2dc;" horiz-adv-x="987" d="M68 1182q0 156 70.5 235.5t172.5 79.5q68 0 114 -16.5t84 -35t70.5 -34.5t71.5 -16q51 0 68.5 24.5t17.5 77.5h183q0 -158 -71 -235.5t-187 -77.5q-51 0 -95.5 16.5t-83.5 35.5t-73.5 35.5t-69.5 16.5q-90 0 -90 -106h-182z" />
<glyph unicode="&#x2000;" horiz-adv-x="989" />
<glyph unicode="&#x2001;" horiz-adv-x="1978" />
<glyph unicode="&#x2002;" horiz-adv-x="989" />
<glyph unicode="&#x2003;" horiz-adv-x="1978" />
<glyph unicode="&#x2004;" horiz-adv-x="659" />
<glyph unicode="&#x2005;" horiz-adv-x="494" />
<glyph unicode="&#x2006;" horiz-adv-x="329" />
<glyph unicode="&#x2007;" horiz-adv-x="329" />
<glyph unicode="&#x2008;" horiz-adv-x="247" />
<glyph unicode="&#x2009;" horiz-adv-x="395" />
<glyph unicode="&#x200a;" horiz-adv-x="109" />
<glyph unicode="&#x2010;" horiz-adv-x="831" d="M82 442v263h668v-263h-668z" />
<glyph unicode="&#x2011;" horiz-adv-x="831" d="M82 442v263h668v-263h-668z" />
<glyph unicode="&#x2012;" horiz-adv-x="831" d="M82 442v263h668v-263h-668z" />
<glyph unicode="&#x2013;" horiz-adv-x="1036" d="M0 483v240h1036v-240h-1036z" />
<glyph unicode="&#x2014;" horiz-adv-x="2070" d="M0 483v240h2071v-240h-2071z" />
<glyph unicode="&#x2018;" horiz-adv-x="495" d="M88 1079q0 63 27.5 134t64.5 134.5t75 113.5t56 75l123 -76q-12 -23 -30.5 -54.5t-38 -67t-37 -72.5t-25.5 -68q35 -20 59.5 -51t24.5 -84q0 -72 -41 -112t-108 -40q-70 0 -110 43t-40 125z" />
<glyph unicode="&#x2019;" horiz-adv-x="495" d="M61 987q12 20 31 53t38.5 69t35.5 73t27 67q-35 20 -59.5 51t-24.5 84q0 72 40.5 112t108.5 40q70 0 110 -43t40 -125q0 -63 -28 -134t-64.5 -134.5t-74.5 -113.5l-57 -75z" />
<glyph unicode="&#x201a;" horiz-adv-x="501" d="M57 -268q12 20 30.5 53t38 68.5t36 72.5t26.5 68q-35 20 -59.5 51t-24.5 84q0 72 41 112t109 40q70 0 109.5 -43t39.5 -125q0 -63 -27.5 -134t-64.5 -134.5t-74.5 -113.5t-56.5 -75z" />
<glyph unicode="&#x201c;" horiz-adv-x="911" d="M88 1079q0 63 27.5 134t64.5 134.5t75 113.5t56 75l123 -76q-12 -23 -30.5 -54.5t-38 -67t-37 -72.5t-25.5 -68q35 -20 59.5 -51t24.5 -84q0 -72 -41 -112t-108 -40q-70 0 -110 43t-40 125zM504 1079q0 63 27.5 134t64.5 134.5t75 113.5t56 75l123 -76 q-12 -23 -30.5 -54.5t-38 -67t-37 -72.5t-25.5 -68q35 -20 59.5 -51t24.5 -84q0 -72 -41 -112t-108 -40q-70 0 -110 43t-40 125z" />
<glyph unicode="&#x201d;" horiz-adv-x="911" d="M61 987q12 20 31 53t38.5 69t35.5 73t27 67q-35 20 -59.5 51t-24.5 84q0 72 40.5 112t108.5 40q70 0 110 -43t40 -125q0 -63 -28 -134t-64.5 -134.5t-74.5 -113.5l-57 -75zM477 987q12 20 31 53t38.5 69t35.5 73t27 67q-35 20 -59.5 51t-24.5 84q0 72 40.5 112t108.5 40 q70 0 110 -43t40 -125q0 -63 -28 -134t-64.5 -134.5t-74.5 -113.5l-57 -75z" />
<glyph unicode="&#x201e;" horiz-adv-x="917" d="M57 -268q12 20 30.5 53t38 68.5t36 72.5t26.5 68q-35 20 -59.5 51t-24.5 84q0 72 41 112t109 40q70 0 109.5 -43t39.5 -125q0 -63 -27.5 -134t-64.5 -134.5t-74.5 -113.5t-56.5 -75zM473 -268q12 20 30.5 53t38 68.5t36 72.5t26.5 68q-35 20 -59.5 51t-24.5 84 q0 72 41 112t109 40q70 0 109.5 -43t39.5 -125q0 -63 -27.5 -134t-64.5 -134.5t-74.5 -113.5t-56.5 -75z" />
<glyph unicode="&#x2022;" horiz-adv-x="1062" d="M119 694q0 86 31.5 161t88 131t131 88t160.5 32t162 -32t131.5 -88t88 -131t32.5 -161q0 -88 -32.5 -163.5t-88 -131t-131.5 -87t-162 -31.5t-160.5 31.5t-131 87t-88 131t-31.5 163.5z" />
<glyph unicode="&#x2026;" horiz-adv-x="1853" d="M92 152q0 72 43 121t117 49t117 -47t43 -123t-43 -123t-117 -47t-117 49t-43 121zM760 152q0 72 43 121t117 49t117 -47t43 -123t-43 -123t-117 -47t-117 49t-43 121zM1425 152q0 72 43 121t117 49t117 -47t43 -123t-43 -123t-117 -47t-117 49t-43 121z" />
<glyph unicode="&#x202f;" horiz-adv-x="395" />
<glyph unicode="&#x2039;" horiz-adv-x="610" d="M61 512l236 395h252l-227 -395l227 -395h-252z" />
<glyph unicode="&#x203a;" horiz-adv-x="610" d="M61 117l228 395l-228 395h252l236 -395l-236 -395h-252z" />
<glyph unicode="&#x205f;" horiz-adv-x="494" />
<glyph unicode="&#x20ac;" d="M23 463v176h147q-2 16 -2 41v29v21.5t4 39.5h-147v178h174q18 104 60 199.5t110.5 168.5t164 115t220.5 42q76 0 139 -15.5t111.5 -37t81 -45t49.5 -40.5l-134 -198q-37 29 -95 57.5t-142 28.5q-111 0 -179.5 -74t-88.5 -201h415l-53 -178h-391q-2 -14 -3 -35.5t-1 -32.5 v-26.5t2 -36.5h371l-52 -176h-299q6 -51 30 -96t60.5 -79t86 -53.5t104.5 -19.5q45 0 87 12.5t76 28.5t58.5 32.5t36.5 26.5l139 -190q-31 -29 -72.5 -56.5t-94 -50t-115 -37t-131.5 -14.5q-111 0 -204 37t-166 102.5t-122 156.5t-70 200h-165z" />
<glyph unicode="&#x2122;" horiz-adv-x="1761" d="M33 1257v183h694v-183h-231v-602h-232v602h-231zM817 655l33 785h229l162 -334l164 334h227l33 -785h-215q0 117 -2 222.5t-2 222.5l-137 -264h-133l-138 264q0 -117 -2 -222.5t-2 -222.5h-217z" />
<glyph unicode="&#xe000;" horiz-adv-x="1034" d="M0 0v1034h1034v-1034h-1034z" />
</font>
</defs>
</svg>
